<mxfile host="Electron" agent="Mozilla/5.0 (Windows NT 10.0; Win64; x64) AppleWebKit/537.36 (KHTML, like Gecko) draw.io/24.7.17 Chrome/128.0.6613.36 Electron/32.0.1 Safari/537.36" version="24.7.17">
  <diagram name="Страница — 1" id="KXvbCw90OZIekDYZO8fW">
    <mxGraphModel dx="1420" dy="977" grid="1" gridSize="10" guides="1" tooltips="1" connect="1" arrows="1" fold="1" page="1" pageScale="1" pageWidth="1169" pageHeight="827" math="0" shadow="0">
      <root>
        <mxCell id="0" />
        <mxCell id="1" parent="0" />
        <mxCell id="a3QCW5Le8PQcq7urfDDm-22" value="Адреса" style="rounded=0;whiteSpace=wrap;html=1;" vertex="1" parent="1">
          <mxGeometry x="61" y="208" width="89" height="60" as="geometry" />
        </mxCell>
        <mxCell id="a3QCW5Le8PQcq7urfDDm-168" value="" style="edgeStyle=orthogonalEdgeStyle;rounded=0;orthogonalLoop=1;jettySize=auto;html=1;" edge="1" parent="1" source="a3QCW5Le8PQcq7urfDDm-23" target="a3QCW5Le8PQcq7urfDDm-26">
          <mxGeometry relative="1" as="geometry" />
        </mxCell>
        <mxCell id="a3QCW5Le8PQcq7urfDDm-23" value="Вход" style="rounded=0;whiteSpace=wrap;html=1;" vertex="1" parent="1">
          <mxGeometry x="61" y="128" width="89" height="60" as="geometry" />
        </mxCell>
        <mxCell id="a3QCW5Le8PQcq7urfDDm-28" value="" style="swimlane;startSize=0;" vertex="1" parent="1">
          <mxGeometry x="39" y="108" width="301" height="180" as="geometry" />
        </mxCell>
        <mxCell id="a3QCW5Le8PQcq7urfDDm-26" value="Разделы" style="rounded=0;whiteSpace=wrap;html=1;" vertex="1" parent="a3QCW5Le8PQcq7urfDDm-28">
          <mxGeometry x="163" y="20" width="101" height="60" as="geometry" />
        </mxCell>
        <mxCell id="a3QCW5Le8PQcq7urfDDm-24" value="Корзина" style="rounded=0;whiteSpace=wrap;html=1;" vertex="1" parent="a3QCW5Le8PQcq7urfDDm-28">
          <mxGeometry x="160" y="102" width="110" height="60" as="geometry" />
        </mxCell>
        <mxCell id="a3QCW5Le8PQcq7urfDDm-29" value="Цветовая гамма" style="rounded=0;whiteSpace=wrap;html=1;" vertex="1" parent="1">
          <mxGeometry x="489" y="210" width="120" height="60" as="geometry" />
        </mxCell>
        <mxCell id="a3QCW5Le8PQcq7urfDDm-30" value="Стиль" style="rounded=0;whiteSpace=wrap;html=1;" vertex="1" parent="1">
          <mxGeometry x="489" y="128" width="120" height="60" as="geometry" />
        </mxCell>
        <mxCell id="a3QCW5Le8PQcq7urfDDm-31" value="Сезон" style="rounded=0;whiteSpace=wrap;html=1;" vertex="1" parent="1">
          <mxGeometry x="627" y="128" width="120" height="60" as="geometry" />
        </mxCell>
        <mxCell id="a3QCW5Le8PQcq7urfDDm-32" value="Размер" style="rounded=0;whiteSpace=wrap;html=1;" vertex="1" parent="1">
          <mxGeometry x="627" y="210" width="120" height="60" as="geometry" />
        </mxCell>
        <mxCell id="a3QCW5Le8PQcq7urfDDm-33" value="" style="swimlane;startSize=0;" vertex="1" parent="1">
          <mxGeometry x="467" y="110" width="293" height="180" as="geometry" />
        </mxCell>
        <mxCell id="a3QCW5Le8PQcq7urfDDm-89" value="" style="edgeStyle=elbowEdgeStyle;elbow=horizontal;endArrow=classic;html=1;curved=0;rounded=0;endSize=8;startSize=8;entryX=0;entryY=0.5;entryDx=0;entryDy=0;exitX=1;exitY=0.5;exitDx=0;exitDy=0;" edge="1" parent="1" source="a3QCW5Le8PQcq7urfDDm-26" target="a3QCW5Le8PQcq7urfDDm-29">
          <mxGeometry width="50" height="50" relative="1" as="geometry">
            <mxPoint x="350" y="161" as="sourcePoint" />
            <mxPoint x="400" y="111" as="targetPoint" />
          </mxGeometry>
        </mxCell>
        <mxCell id="a3QCW5Le8PQcq7urfDDm-227" value="Переход к выбору раздела" style="edgeLabel;html=1;align=center;verticalAlign=middle;resizable=0;points=[];" vertex="1" connectable="0" parent="a3QCW5Le8PQcq7urfDDm-89">
          <mxGeometry x="-0.4944" y="-2" relative="1" as="geometry">
            <mxPoint as="offset" />
          </mxGeometry>
        </mxCell>
        <mxCell id="a3QCW5Le8PQcq7urfDDm-94" value="" style="swimlane;startSize=0;" vertex="1" parent="1">
          <mxGeometry x="816" y="112" width="204" height="180" as="geometry" />
        </mxCell>
        <mxCell id="a3QCW5Le8PQcq7urfDDm-90" value="Справочник&amp;nbsp;&lt;div&gt;Цвета&lt;/div&gt;" style="rounded=0;whiteSpace=wrap;html=1;" vertex="1" parent="a3QCW5Le8PQcq7urfDDm-94">
          <mxGeometry x="25" y="18" width="105" height="60" as="geometry" />
        </mxCell>
        <mxCell id="a3QCW5Le8PQcq7urfDDm-225" value="&lt;ul&gt;&lt;li&gt;Белый&amp;nbsp;&lt;/li&gt;&lt;li&gt;Синий&lt;/li&gt;&lt;li&gt;Заленый&lt;/li&gt;&lt;li&gt;Красный&lt;/li&gt;&lt;/ul&gt;" style="text;strokeColor=none;fillColor=none;html=1;whiteSpace=wrap;verticalAlign=middle;overflow=hidden;" vertex="1" parent="a3QCW5Le8PQcq7urfDDm-94">
          <mxGeometry x="26" y="76" width="100" height="80" as="geometry" />
        </mxCell>
        <mxCell id="a3QCW5Le8PQcq7urfDDm-170" value="Переход к справочнику" style="edgeStyle=elbowEdgeStyle;elbow=vertical;endArrow=classic;html=1;curved=0;rounded=0;endSize=8;startSize=8;exitX=0.5;exitY=1;exitDx=0;exitDy=0;entryX=0.199;entryY=0.979;entryDx=0;entryDy=0;entryPerimeter=0;" edge="1" parent="1" source="a3QCW5Le8PQcq7urfDDm-29" target="a3QCW5Le8PQcq7urfDDm-94">
          <mxGeometry width="50" height="50" relative="1" as="geometry">
            <mxPoint x="555" y="370" as="sourcePoint" />
            <mxPoint x="810" y="200" as="targetPoint" />
            <Array as="points">
              <mxPoint x="745" y="330" />
              <mxPoint x="741" y="198" />
            </Array>
          </mxGeometry>
        </mxCell>
      </root>
    </mxGraphModel>
  </diagram>
</mxfile>
